<?xml version="1.0" ?><svg width="96px" height="96px" viewBox="0 0 96 96" style="enable-background:new 0 0 96 96;" version="1.1" xml:space="preserve" xmlns="http://www.w3.org/2000/svg" xmlns:xlink="http://www.w3.org/1999/xlink"><style type="text/css">
	.st0{display:none;}
	.st1{fill:#FFFFFF;}
	.st2{fill:none;stroke:#000000;stroke-width:2;stroke-linecap:round;stroke-linejoin:round;stroke-miterlimit:10;}
	.st3{fill:#FFF8FA;}
	.st4{stroke:#000000;stroke-width:2;stroke-miterlimit:10;}
	.st5{fill:none;stroke:#000000;stroke-miterlimit:10;}
	.st6{fill:none;stroke:#000000;stroke-width:2;stroke-linecap:round;stroke-miterlimit:10;}
	.st7{fill:#231F20;stroke:#000000;stroke-width:0;stroke-miterlimit:10;}
	.st8{fill:#FF0D5C;}
	.st9{display:inline;}
	.st10{fill:none;stroke:#00D8E9;stroke-width:0.25;stroke-linecap:round;stroke-linejoin:round;stroke-miterlimit:10;}
	.st11{fill:none;stroke:#00D8E9;stroke-width:0.25;stroke-linejoin:round;stroke-miterlimit:10;}
	.st12{fill:none;stroke:#00D8E9;stroke-linecap:round;stroke-linejoin:round;stroke-miterlimit:10;}
	.st13{fill:none;stroke:#00D8E9;stroke-linejoin:round;stroke-miterlimit:10;}
</style><g id="banana"/><g id="Layer_12"/><g id="grape"/><g id="assasin"/><g id="gold"/><g id="mage_ass"/><g id="fighter"/><g id="SUPPORT"/><g id="marksman"/><g id="JUNGLE"/><g id="TANK"/><g class="st0" id="creditcard"/><g class="st0" id="CAKE"/><g class="st0" id="TOPI"/><g class="st0" id="SPATU"/><g class="st0" id="SETTING"/><g class="st0" id="CART"/><g class="st0" id="k3"/><g class="st0" id="computer"/><g class="st0" id="phone"/><g class="st0" id="location"/><g id="koper"><g id="Layer_29"/><path d="M66.8,61.8c1.4-2.2,2.4-4.6,2.9-7.1c0,0,0,0,0,0c0-0.1,0.1-0.1,0.1-0.2c0,0,0-0.1,0.1-0.1c0-0.1,0.1-0.1,0.1-0.1   c0,0,0.1-0.1,0.1-0.1c0,0,0.1,0,0.1-0.1c0.1,0,0.1-0.1,0.2-0.1c0,0,0,0,0,0l8.9-1.3v-5.6l-8.9-1.3c0,0-0.1,0-0.1,0   c-0.1,0-0.1,0-0.2-0.1c0,0-0.1,0-0.1-0.1c-0.1,0-0.1-0.1-0.2-0.1c0,0-0.1-0.1-0.1-0.1c0-0.1-0.1-0.1-0.1-0.2c0,0,0-0.1,0-0.1   c0,0,0,0,0,0c-0.6-2.5-1.5-4.8-2.9-7c0,0,0,0,0,0c0-0.1-0.1-0.1-0.1-0.2c0-0.1,0-0.1-0.1-0.2c0-0.1,0-0.1,0-0.2c0-0.1,0-0.1,0-0.2   c0-0.1,0-0.1,0.1-0.1c0-0.1,0.1-0.1,0.1-0.2c0,0,0,0,0,0l5.4-7.3l-4-4L61,31.1c0,0,0,0,0,0c-0.1,0.1-0.2,0.1-0.3,0.2c0,0,0,0,0,0   c-0.1,0-0.2,0-0.2,0c0,0-0.1,0-0.1,0c0,0-0.1,0-0.1,0c-0.1,0-0.2,0-0.3-0.1c0,0,0,0-0.1,0c0,0,0,0,0,0c-2.1-1.4-4.5-2.3-6.9-2.9   h-0.7l-1.4-9.9h-5.6l-1.4,9.9H43c-2.5,0.6-4.8,1.5-6.9,2.9c0,0,0,0,0,0c0,0,0,0-0.1,0c-0.1,0-0.2,0.1-0.3,0.1c0,0-0.1,0-0.1,0   c0,0-0.1,0-0.1,0c-0.1,0-0.2,0-0.2,0c0,0,0,0,0,0c-0.1,0-0.2-0.1-0.3-0.2c0,0,0,0,0,0l-7.3-5.4l-4,4l5.4,7.3c0,0,0,0,0,0   c0,0.1,0.1,0.1,0.1,0.2c0,0,0.1,0.1,0.1,0.1c0,0.1,0,0.1,0,0.2c0,0.1,0,0.1,0,0.2c0,0.1,0,0.1-0.1,0.2c0,0.1,0,0.1-0.1,0.2   c0,0,0,0,0,0c-1.4,2.2-2.4,4.5-2.9,7c0,0,0,0,0,0c0,0,0,0.1,0,0.1c0,0.1-0.1,0.2-0.1,0.2c0,0-0.1,0.1-0.1,0.1   c-0.1,0.1-0.1,0.1-0.2,0.2c0,0-0.1,0-0.1,0.1c-0.1,0-0.1,0.1-0.2,0.1c0,0,0,0-0.1,0l-8.9,1.3v5.6l8.9,1.3c0,0,0,0,0,0   c0.1,0,0.2,0,0.2,0.1c0,0,0.1,0,0.1,0.1c0.1,0,0.1,0.1,0.1,0.1c0,0,0.1,0.1,0.1,0.1c0,0,0,0.1,0.1,0.1c0,0.1,0.1,0.1,0.1,0.2   c0,0,0,0,0,0c0.5,2.5,1.5,4.9,2.9,7.1l0.2,0.2v0.3v0.3l-5.6,7.5l4,4l7.2-5.4c0,0,0,0,0,0c0.1,0,0.1-0.1,0.2-0.1c0,0,0.1,0,0.1-0.1   c0.1,0,0.1,0,0.2,0c0.1,0,0.1,0,0.2,0c0.1,0,0.1,0,0.1,0.1c0.1,0,0.2,0,0.2,0.1c0,0,0,0,0,0c2.2,1.4,4.6,2.4,7.1,3c0,0,0,0,0,0   c0.1,0,0.1,0,0.2,0.1c0.1,0,0.1,0.1,0.2,0.1c0,0,0.1,0.1,0.1,0.1c0.1,0.1,0.1,0.1,0.2,0.2c0,0,0,0.1,0.1,0.1c0,0.1,0.1,0.2,0.1,0.2   c0,0,0,0,0,0l1.3,8.9h5.6l1.3-8.9c0,0,0,0,0,0c0-0.1,0.1-0.2,0.1-0.3c0,0,0-0.1,0-0.1c0.1-0.1,0.1-0.2,0.2-0.2c0,0,0,0,0-0.1   c0.1,0,0.1-0.1,0.2-0.1c0,0,0.1-0.1,0.1-0.1c0,0,0,0,0,0c2.5-0.6,4.9-1.6,7.1-3c0,0,0,0,0,0c0.1,0,0.1-0.1,0.2-0.1c0,0,0.1,0,0.1,0   c0.1,0,0.1,0,0.2,0c0.1,0,0.1,0,0.2,0c0.1,0,0.1,0,0.2,0.1c0.1,0,0.1,0.1,0.2,0.1c0,0,0,0,0,0l7.2,5.4l4-4L66.9,63c0,0,0-0.1,0-0.1   c0-0.1-0.1-0.1-0.1-0.2c0-0.1,0-0.1,0-0.2c0,0,0-0.1,0-0.1v-0.3L66.8,61.8z M62,51.4c-0.8,6.3-5.9,11.4-12.2,12.2   C40.6,64.8,32.8,57,34,47.7c0.8-6.3,5.9-11.4,12.2-12.2C55.4,34.4,63.2,42.2,62,51.4z"/></g><g class="st0" id="guide"/><g id="MAGICAL"/><g id="phisical"/><g id="mango"/><g id="orange"/></svg>